<?xml version="1.0" encoding="utf-8"?>
<!-- Generator: Adobe Illustrator 25.1.0, SVG Export Plug-In . SVG Version: 6.00 Build 0)  -->
<svg version="1.1" xmlns="http://www.w3.org/2000/svg" xmlns:xlink="http://www.w3.org/1999/xlink" x="0px" y="0px"
	 viewBox="0 0 188 44" style="enable-background:new 0 0 188 44;" xml:space="preserve">
<style type="text/css">
	.st0{fill:#3A395E;}
	.st1{fill:#7051EF;}
	.st2{fill:#6F51EE;}
	.st3{fill:#FFFFFF;}
	.st4{display:none;}
	.st5{display:inline;}
</style>
<g id="Layer_1">
	<g>
		<path class="st0" d="M80.3,9.4v7.9c-1.2-1.2-3-1.9-5.1-1.9c-5,0-9,4-9,9.2s3.8,9.2,9,9.2c2.1,0,4.1-0.7,5.4-2.1v1.7h4.6v-24H80.3z
			 M75.8,29.5c-2.6,0-4.6-2-4.6-4.9s1.9-4.9,4.6-4.9c2.6,0,4.4,2,4.4,4.9S78.4,29.5,75.8,29.5z M105.1,24.1c0-4.9-3.8-8.7-8.8-8.7
			c-5.1,0-8.9,3.9-8.9,9.2c0,5.1,3.7,9.2,9.2,9.2c3.6,0,6.6-1.7,7.6-4.3l-3.9-1.8c-0.6,1.2-1.9,1.9-3.7,1.9c-2.4,0-4-1.4-4.2-3.7
			h12.4C105.1,25.5,105.1,24.8,105.1,24.1z M92.6,22.4c0.5-2,1.9-3.2,3.8-3.2c2,0,3.4,1.3,3.6,3.2H92.6z M114.2,33.8
			c4.2,0,7.2-2.2,7.2-5.5c0-2.5-1.7-4.3-4.9-5.2l-3.3-0.8c-0.5-0.2-1.8-0.5-1.8-1.6c0-1,0.8-1.5,2.2-1.5c1.9,0,3.4,1,4,2.4l3.6-1.7
			c-1.2-2.9-4-4.7-7.6-4.7c-4.1,0-7,2.2-7,5.5c0,2.4,1.6,4.3,4.8,5.2l3.1,0.8c0.6,0.2,2,0.5,2,1.7c0,1-1,1.6-2.5,1.6
			c-2,0-3.6-1.1-4.6-3.1l-3.6,1.7C107.2,31.9,110.4,33.8,114.2,33.8z M123.7,14.2h4.9V9.4h-4.9V14.2z M123.7,33.5h4.9V15.8h-4.9
			V33.5z M144.9,15.8v1.9c-1.3-1.4-3.1-2.2-5.3-2.2c-4.6,0-8.7,3.2-8.7,8.6c0,5.2,4,8.7,8.8,8.7c2,0,3.7-0.6,4.9-1.8v1.6
			c0,2.3-1.8,3.8-4.2,3.8c-2.1,0-3.6-1.2-4.1-3.1l-4.1,2c1.1,3.3,4.2,5.4,8.4,5.4c4.9,0,9.1-3.2,9.1-8.2V15.8H144.9z M140.2,28.2
			c-2.5,0-4.4-1.7-4.4-4.1c0-2.5,2-4.2,4.4-4.2s4.3,1.7,4.3,4.2C144.6,26.5,142.7,28.2,140.2,28.2z M162.1,15.4c-2.2,0-4,0.8-5,2.5
			v-2.1h-4.6v17.7h4.9V23.1c0-2,1.4-3.4,3.3-3.4c1.9,0,3.3,1.4,3.3,3.4v10.4h4.9V22.1C168.8,18.1,166.1,15.4,162.1,15.4z"/>
		<circle class="st1" cx="175.8" cy="31" r="3.1"/>
		<g>
		</g>
		<path class="st2" d="M42.6,43.8H21.7c-6.9,0-12.5-5.6-12.5-12.5V12.5C9.2,5.6,14.8,0,21.7,0h20.9c6.9,0,12.5,5.6,12.5,12.5v18.8
			C55.1,38.2,49.5,43.8,42.6,43.8z"/>
		<path class="st3" d="M40,5.3h-3.3c-1.3,0-2.3,0.8-2.5,2l-1,3.3c0,0,2.8-0.1,3.6-0.1h3.3c2.4,0,4.4,2,4.4,4.4s-2,4.4-4.4,4.4h-1.9
			c-1.1,0-2,0.6-2.4,1.6c0.5-2,1-3.4,1.1-3.5c0.4-1.4-0.4-2.9-1.8-3.3c-1.4-0.4-2.9,0.4-3.3,1.8c0,0.1-2.3,8.1-3.5,11.9
			c-1.5,5.2-3.8,5.2-4.7,5.2h-0.1c-1.9,0-3.1-0.7-3.9-2.6c-0.6-1.4-2.2-1.9-3.5-1.4c-1.4,0.6-1.9,2.2-1.4,3.5
			c1.7,3.8,4.8,5.7,8.7,5.7c0.1,0,0.1,0,0.2,0c2.5,0,4.8-1.1,6.6-3.1c1.3-1.5,2.3-3.4,3.1-6c0.3-1.3,0.8-3,1.4-4.7l0,0h2H40
			c5.4,0,9.7-4.3,9.7-9.7S45.4,5.3,40,5.3z"/>
	</g>
</g>
<g id="Layer_2" class="st4">
	<g class="st5">
		<path class="st2" d="M55.2,42.7H16.9c-1.4,0-2.5-1.1-2.5-2.5V3.8c0-1.4,1.1-2.5,2.5-2.5h38.3c1.4,0,2.5,1.1,2.5,2.5v36.3
			C57.8,41.6,56.6,42.7,55.2,42.7z"/>
	</g>
</g>
</svg>
